<svg xmlns="http://www.w3.org/2000/svg" xmlns:xlink="http://www.w3.org/1999/xlink" width="250" zoomAndPan="magnify" viewBox="0 0 187.5 112.499997" height="150" preserveAspectRatio="xMidYMid meet" version="1.0"><defs><clipPath id="ebb42228fa"><path d="M 20.714844 33.554688 L 169 33.554688 L 169 61 L 20.714844 61 Z M 20.714844 33.554688 " clip-rule="nonzero"/></clipPath><clipPath id="bd7ee3fc95"><path d="M 146 58 L 170.449219 58 L 170.449219 78.476562 L 146 78.476562 Z M 146 58 " clip-rule="nonzero"/></clipPath><clipPath id="b6a7b9312b"><path d="M 170 59 L 170.449219 59 L 170.449219 60 L 170 60 Z M 170 59 " clip-rule="nonzero"/></clipPath></defs><path fill="#ffffff" d="M 69.941406 51.183594 C 69.851562 51.183594 69.820312 51.214844 69.941406 51.183594 Z M 69.941406 51.183594 " fill-opacity="1" fill-rule="nonzero"/><path fill="#ffffff" d="M 125.464844 52.546875 C 125.496094 52.546875 125.496094 52.546875 125.523438 52.546875 C 125.554688 52.488281 125.617188 52.425781 125.648438 52.398438 Z M 125.464844 52.546875 " fill-opacity="1" fill-rule="nonzero"/><path fill="#ffffff" d="M 134.382812 53.335938 C 134.410156 53.335938 134.410156 53.335938 134.441406 53.367188 C 134.441406 53.335938 134.441406 53.304688 134.382812 53.335938 Z M 134.382812 53.335938 " fill-opacity="1" fill-rule="nonzero"/><path fill="#ffffff" d="M 104.878906 52.246094 C 104.789062 52.246094 104.757812 52.246094 104.726562 52.277344 C 104.757812 52.277344 104.820312 52.277344 104.878906 52.246094 Z M 104.878906 52.246094 " fill-opacity="1" fill-rule="nonzero"/><path fill="#ffffff" d="M 53.574219 51.277344 C 53.574219 51.277344 53.605469 51.277344 53.605469 51.277344 C 53.574219 51.277344 53.542969 51.246094 53.511719 51.246094 Z M 53.574219 51.277344 " fill-opacity="1" fill-rule="nonzero"/><path fill="#ffffff" d="M 53.757812 51.183594 C 53.941406 51.246094 53.695312 51.277344 53.605469 51.277344 C 53.816406 51.367188 54.03125 51.367188 54.246094 51.335938 C 54.246094 51.246094 53.847656 51.246094 53.757812 51.183594 Z M 53.757812 51.183594 " fill-opacity="1" fill-rule="nonzero"/><path fill="#ffffff" d="M 23.523438 52.910156 L 23.613281 52.851562 C 23.554688 52.851562 23.523438 52.882812 23.523438 52.910156 Z M 23.523438 52.910156 " fill-opacity="1" fill-rule="nonzero"/><path fill="#ffffff" d="M 105.582031 56.847656 C 105.550781 56.847656 105.492188 56.847656 105.460938 56.878906 C 105.519531 56.878906 105.550781 56.847656 105.582031 56.847656 Z M 105.582031 56.847656 " fill-opacity="1" fill-rule="nonzero"/><path fill="#ffffff" d="M 28.378906 51.941406 L 28.410156 51.789062 C 28.378906 51.851562 28.347656 51.910156 28.378906 51.941406 Z M 28.378906 51.941406 " fill-opacity="1" fill-rule="nonzero"/><path fill="#ffffff" d="M 125.648438 52.398438 L 125.707031 52.335938 C 125.675781 52.367188 125.675781 52.367188 125.648438 52.398438 Z M 125.648438 52.398438 " fill-opacity="1" fill-rule="nonzero"/><path fill="#ffffff" d="M 142.625 53.878906 C 142.625 53.910156 142.65625 53.972656 142.65625 54 C 142.65625 54 142.6875 54 142.6875 54 Z M 142.625 53.878906 " fill-opacity="1" fill-rule="nonzero"/><path fill="#ffffff" d="M 147.820312 38.949219 C 147.820312 38.949219 147.789062 38.980469 147.789062 39.011719 L 147.972656 39.101562 C 147.878906 39.011719 147.847656 38.980469 147.820312 38.949219 Z M 147.820312 38.949219 " fill-opacity="1" fill-rule="nonzero"/><path fill="#ffffff" d="M 153.710938 55.152344 C 153.710938 55.121094 153.742188 55.121094 153.742188 55.09375 C 153.710938 55.09375 153.683594 55.0625 153.652344 55.0625 C 153.621094 55.0625 153.621094 55.0625 153.589844 55.0625 C 153.589844 55.0625 153.5 55.0625 153.4375 55.03125 C 153.191406 55 152.917969 55 152.582031 54.972656 L 152.519531 55.152344 C 152.519531 55.152344 152.855469 55.152344 153.191406 55.152344 C 153.621094 55.152344 153.710938 55.152344 153.710938 55.152344 Z M 153.710938 55.152344 " fill-opacity="1" fill-rule="nonzero"/><g clip-path="url(#ebb42228fa)"><path fill="#ffffff" d="M 161.253906 53.367188 C 161.253906 53.367188 161.5625 53.789062 161.867188 54.242188 C 162.140625 54.636719 162.417969 55.0625 162.417969 55.0625 C 161.746094 54.394531 161.101562 53.789062 160.554688 53.214844 C 160.035156 52.640625 159.546875 52.09375 159.085938 51.578125 C 158.875 51.304688 158.628906 51.0625 158.414062 50.820312 C 158.261719 50.640625 158.140625 50.457031 157.988281 50.308594 C 157.773438 50.035156 157.589844 49.792969 157.378906 49.519531 C 156.582031 48.488281 155.851562 47.492188 154.8125 46.277344 L 154.964844 46.371094 C 154.871094 46.15625 154.597656 46.128906 154.109375 45.523438 C 153.863281 45.21875 153.558594 44.792969 153.191406 44.128906 C 152.828125 43.460938 152.398438 42.554688 151.941406 41.34375 L 151.972656 41.3125 C 151.878906 41.160156 151.820312 41.191406 151.695312 40.859375 C 151.695312 40.859375 151.757812 41.070312 151.820312 41.28125 C 151.878906 41.492188 151.972656 41.707031 151.972656 41.707031 C 151.605469 41.3125 151.207031 40.980469 150.84375 40.402344 C 150.8125 40.25 150.84375 40.160156 150.871094 40.128906 C 150.871094 40.128906 150.628906 39.765625 150.414062 39.402344 C 150.199219 39.039062 149.957031 38.648438 149.957031 38.648438 L 149.894531 38.070312 C 149.527344 37.675781 149.191406 38.101562 148.765625 36.707031 C 148.703125 37.34375 148.246094 36.164062 148.183594 36.40625 C 148.183594 36.316406 148.183594 36.132812 148.15625 36.011719 C 147.726562 35.285156 146.933594 33.863281 146.597656 33.589844 C 146.597656 33.589844 146.8125 34.40625 146.992188 35.375 C 147.207031 36.316406 147.453125 37.40625 147.511719 37.890625 C 147.023438 36.769531 147.328125 37.617188 147.328125 37.890625 L 147.453125 37.917969 C 147.726562 38.617188 147.542969 38.707031 147.636719 39.070312 C 147.664062 39.070312 147.664062 39.039062 147.664062 39.011719 L 147.605469 38.980469 C 147.636719 38.917969 147.664062 38.949219 147.695312 38.949219 C 147.726562 38.917969 147.789062 38.917969 147.878906 39.101562 L 147.847656 39.070312 C 148.03125 39.3125 148.246094 39.796875 148.367188 40.007812 L 148.214844 40.101562 C 148.492188 40.25 148.828125 41.101562 149.164062 42.007812 C 149.5 42.917969 149.804688 43.855469 150.015625 44.160156 C 150.230469 44.914062 150.964844 45.523438 151.390625 46.339844 C 152.183594 47.582031 151.574219 47.097656 151.878906 47.792969 C 152.339844 48.609375 151.941406 47.519531 152.183594 47.824219 C 152.183594 47.824219 152.308594 48.097656 152.398438 48.339844 C 152.519531 48.609375 152.613281 48.851562 152.613281 48.851562 C 152.214844 48.339844 152.339844 48.703125 152.339844 48.824219 C 152.613281 49.214844 152.917969 49.761719 153.191406 50.214844 C 153.5 50.671875 153.773438 51.035156 154.019531 51.035156 C 154.691406 52.183594 154.597656 52.246094 154.933594 52.699219 C 154.871094 52.519531 154.691406 52.183594 154.71875 52.125 C 154.933594 52.640625 154.902344 52.304688 154.8125 52.09375 C 154.902344 52.15625 154.996094 52.277344 155.085938 52.398438 C 155.148438 52.457031 155.179688 52.546875 155.238281 52.609375 C 155.269531 52.640625 155.300781 52.699219 155.332031 52.730469 C 155.363281 52.761719 155.363281 52.761719 155.363281 52.789062 L 155.390625 52.820312 C 155.484375 53.03125 155.605469 53.246094 155.667969 53.425781 C 155.820312 53.789062 155.851562 54 156.1875 54.09375 L 156.0625 54.0625 C 156.308594 54.121094 156.550781 54.152344 156.765625 54.214844 C 156.980469 54.242188 157.164062 54.304688 157.4375 54.488281 C 157.4375 54.488281 157.378906 54.609375 157.378906 54.609375 L 157.867188 54.941406 C 157.867188 55.0625 157.621094 54.910156 157.558594 54.910156 C 157.925781 55.214844 158.203125 55.484375 158.414062 55.726562 C 158.597656 55.878906 158.261719 55.757812 158.109375 55.757812 C 157.925781 55.726562 157.773438 55.699219 157.589844 55.699219 C 157.589844 55.699219 158.171875 55.941406 158.84375 56.183594 C 159.515625 56.425781 160.246094 56.667969 160.246094 56.667969 C 159.667969 56.546875 158.875 56.363281 158.171875 56.210938 C 157.589844 56.089844 157.195312 56.03125 157.347656 56.183594 C 157.347656 56.183594 157.132812 56.089844 156.917969 56.03125 C 156.734375 55.941406 156.523438 55.878906 156.523438 55.878906 C 156.035156 55.726562 155.789062 55.667969 155.636719 55.636719 C 155.484375 55.636719 155.453125 55.667969 155.421875 55.699219 C 155.390625 55.789062 155.484375 55.941406 155.148438 55.847656 C 155.148438 55.847656 154.933594 55.757812 154.71875 55.667969 C 154.507812 55.578125 154.355469 55.484375 154.355469 55.484375 L 154.933594 55.515625 C 154.597656 55.425781 154.382812 55.335938 154.171875 55.273438 C 153.988281 55.183594 153.804688 55.121094 153.621094 55 C 153.652344 55 153.652344 55.03125 153.683594 55.0625 L 153.621094 55.0625 C 153.621094 55.09375 153.589844 55.121094 153.558594 55.152344 C 153.527344 55.152344 153.527344 55.183594 153.5 55.183594 C 153.5 55.183594 153.46875 55.183594 153.46875 55.214844 C 153.4375 55.214844 153.40625 55.214844 153.375 55.214844 C 153.164062 55.242188 152.886719 55.242188 152.550781 55.214844 C 151.636719 55.121094 150.902344 55.304688 149.4375 54.878906 L 149.039062 55.152344 L 147.941406 54.910156 L 147.941406 54.667969 C 149.007812 54.757812 151.054688 54.757812 152.460938 54.851562 L 152.492188 54.730469 C 151.667969 54.667969 150.71875 54.730469 150.171875 54.667969 C 149.894531 54.609375 149.253906 54.304688 149.742188 54.183594 L 149.222656 54.394531 C 146.476562 54.273438 146.445312 54.273438 143.605469 53.851562 L 143.847656 53.972656 C 143.269531 54 142.6875 54.0625 142.566406 53.851562 C 140.855469 53.730469 139.054688 53.457031 137.953125 53.09375 L 137.679688 53.367188 C 137.3125 53.335938 136.792969 52.882812 136.578125 53.273438 L 135.785156 53.367188 C 135.296875 53.304688 134.960938 53.457031 134.410156 53.273438 C 134.382812 53.273438 134.351562 53.246094 134.320312 53.246094 C 134.320312 53.246094 134.320312 53.273438 134.320312 53.273438 C 133.191406 53.09375 134.320312 53.515625 133.039062 53.304688 C 132.640625 53.09375 132.546875 53.636719 131.9375 53.546875 L 131.328125 53.125 C 130.195312 52.820312 129.984375 53.246094 128.335938 53.152344 C 127.539062 52.972656 127.171875 52.609375 127.722656 52.335938 C 126.992188 52.667969 127.386719 52.578125 126.410156 52.699219 C 126.257812 52.546875 126.378906 52.519531 126.59375 52.398438 C 125.738281 52.183594 126.074219 52.519531 125.433594 52.457031 C 125.21875 52.730469 125.003906 53.183594 124.792969 53.183594 L 125.035156 53.273438 C 124.363281 53.394531 123.601562 53.425781 122.808594 53.246094 L 122.835938 53.09375 L 122.105469 53.246094 L 122.074219 53.0625 L 120.882812 53.0625 L 121.035156 53.125 C 120.761719 53.125 119.8125 53.152344 119.292969 53.03125 L 119.324219 52.941406 C 117.859375 52.546875 116.605469 52.910156 114.835938 52.882812 L 115.082031 52.667969 C 114.5 52.425781 114.898438 52.972656 114.195312 52.851562 L 114.164062 52.578125 C 113.523438 52.882812 113.371094 52.488281 112.941406 52.335938 L 113.125 52.667969 L 112.332031 52.578125 C 111.445312 52.425781 111.8125 52.125 111.933594 51.941406 L 111.324219 52.183594 L 111.203125 51.882812 C 110.742188 52.214844 110.773438 51.820312 109.980469 51.972656 C 109.917969 51.851562 110.132812 51.789062 109.859375 51.730469 L 108.542969 52.09375 L 109.339844 51.941406 L 109.214844 52.367188 C 108.390625 52.667969 108.117188 52.277344 107.535156 52.367188 L 107.933594 52.246094 C 106.988281 52.304688 106.957031 52.125 106.40625 52.003906 C 106.558594 52.09375 106.804688 52.214844 106.4375 52.277344 C 106.164062 52.277344 106.285156 52.125 106.039062 52.0625 C 105.980469 52.367188 105.277344 52.488281 104.667969 52.335938 C 104.667969 52.304688 104.695312 52.246094 104.726562 52.246094 C 104.574219 52.277344 104.484375 52.367188 104.207031 52.277344 L 104.390625 51.941406 L 103.871094 52.246094 C 103.535156 52.15625 103.015625 52.367188 103.046875 52.15625 L 103.261719 52.09375 L 100.636719 51.910156 L 100.605469 51.640625 C 100.328125 51.972656 99.167969 51.457031 99.230469 51.910156 C 98.742188 51.640625 97.277344 52.035156 97.582031 51.519531 C 95.839844 51.425781 94.894531 51.882812 92.785156 51.578125 C 92.054688 51.125 89.976562 51.214844 88.632812 51.125 C 85.976562 51.246094 84.265625 51.335938 81.546875 51.425781 C 79.929688 50.792969 77.484375 51.546875 75.746094 51.15625 L 75.257812 51.367188 C 74.097656 50.972656 72.324219 51.398438 70.675781 51.003906 C 70.277344 51.09375 70.066406 51.125 69.972656 51.125 C 70.035156 51.125 70.15625 51.183594 70.1875 51.335938 C 69.730469 51.214844 68.78125 51.335938 68.84375 51.035156 L 68.964844 51.003906 C 69.027344 50.699219 67.5625 51.125 67.042969 50.851562 L 67.316406 51.183594 L 66.429688 51.125 L 66.675781 51.0625 C 62.828125 51.730469 61.117188 50.671875 57.484375 51.277344 C 57.972656 50.941406 56.78125 51.457031 56.71875 51.0625 C 55.804688 50.578125 55.039062 51.15625 54.277344 51.277344 C 54.277344 51.304688 54.277344 51.304688 54.214844 51.335938 L 52.902344 51.277344 C 53.695312 50.792969 51.957031 51.667969 52.6875 51.277344 C 49.296875 50.882812 44.839844 51.214844 40.929688 51.035156 L 41.113281 51.15625 C 40.105469 51.125 38.882812 51.277344 38.121094 51.0625 C 37.359375 50.851562 36.472656 51.367188 36.167969 51.398438 C 35.34375 51.609375 34.546875 51.183594 34.914062 51.214844 C 34 51.277344 33.171875 51.730469 31.921875 51.609375 C 31.707031 51.425781 30.820312 51.546875 30.027344 51.730469 C 29.203125 51.910156 28.46875 52.09375 28.410156 51.851562 L 28.410156 51.882812 C 27.980469 51.851562 27.585938 51.882812 27.1875 51.972656 C 26.972656 52.003906 26.789062 52.0625 26.578125 52.09375 C 26.394531 52.15625 26.179688 52.214844 25.964844 52.277344 C 25.171875 52.488281 24.378906 52.789062 23.460938 52.910156 C 23.460938 52.910156 23.492188 52.882812 23.523438 52.820312 C 23.523438 52.820312 23.339844 52.972656 23.035156 53.214844 C 22.757812 53.457031 22.394531 53.757812 22.027344 54.09375 C 21.84375 54.242188 21.691406 54.425781 21.507812 54.578125 C 21.355469 54.730469 21.203125 54.878906 21.078125 55.03125 C 20.867188 55.363281 20.714844 55.546875 20.714844 55.546875 C 20.714844 55.546875 21.109375 55.789062 21.507812 56.03125 C 21.875 56.273438 22.242188 56.546875 22.242188 56.546875 C 22.242188 56.546875 22.300781 56.546875 22.363281 56.546875 C 22.453125 56.546875 22.578125 56.546875 22.699219 56.546875 C 22.972656 56.546875 23.371094 56.546875 23.738281 56.605469 C 24.101562 56.636719 24.46875 56.667969 24.746094 56.726562 C 25.019531 56.757812 25.203125 56.789062 25.203125 56.789062 C 25.203125 56.789062 25.292969 56.757812 25.507812 56.699219 C 25.691406 56.636719 25.964844 56.546875 26.300781 56.453125 C 26.972656 56.273438 27.859375 56.0625 28.777344 55.910156 C 29.234375 55.820312 29.722656 55.757812 30.148438 55.699219 C 30.609375 55.636719 31.003906 55.578125 31.371094 55.546875 C 32.105469 55.484375 32.59375 55.457031 32.59375 55.457031 C 32.59375 55.457031 32.992188 55.457031 33.570312 55.484375 C 34.152344 55.515625 34.945312 55.578125 35.738281 55.636719 C 37.359375 55.757812 38.945312 55.878906 38.945312 55.878906 C 38.945312 55.878906 42.886719 55.847656 46.824219 55.820312 C 50.765625 55.820312 54.703125 55.789062 54.703125 55.789062 L 55.832031 55.457031 C 58.917969 56.089844 62.886719 55.457031 66.21875 55.941406 L 66.277344 55.636719 C 67.226562 55.636719 67.164062 55.820312 67.378906 55.878906 C 76.113281 55.96875 85.121094 55.789062 92.96875 56.394531 C 93.734375 56.605469 96.023438 56.578125 96.605469 56.789062 C 99.167969 56.484375 101.855469 56.605469 104.421875 56.726562 L 104.332031 56.757812 L 105.519531 56.726562 C 105.582031 56.757812 105.582031 56.789062 105.550781 56.820312 C 106.925781 56.605469 109.035156 56.941406 110.714844 57.121094 L 110.621094 57.152344 C 120.300781 57.574219 129.34375 57.425781 138.929688 58.363281 C 141.160156 58.726562 143.574219 58.816406 146.078125 58.910156 C 147.328125 58.9375 148.613281 59 149.863281 59.058594 C 150.507812 59.089844 151.148438 59.152344 151.789062 59.210938 L 152.734375 59.300781 L 153.222656 59.363281 L 154.109375 59.453125 C 154.628906 59.574219 156.707031 59.757812 159.453125 59.9375 C 162.171875 60.121094 165.5625 60.332031 168.554688 60.484375 C 166.753906 58.726562 165.074219 57.089844 163.761719 55.789062 C 162.476562 54.515625 161.5625 53.636719 161.253906 53.367188 Z M 161.253906 53.367188 " fill-opacity="1" fill-rule="nonzero"/></g><path fill="#ffffff" d="M 150.902344 40.101562 L 150.933594 40.128906 C 151.023438 40.070312 150.964844 40.039062 150.902344 40.101562 Z M 150.902344 40.101562 " fill-opacity="1" fill-rule="nonzero"/><path fill="#ffffff" d="M 157.589844 55.757812 C 157.621094 55.757812 157.621094 55.757812 157.652344 55.757812 L 157.132812 55.546875 Z M 157.589844 55.757812 " fill-opacity="1" fill-rule="nonzero"/><path fill="#ffffff" d="M 152.0625 48.429688 C 152.398438 48.972656 152.429688 48.972656 152.429688 48.851562 C 152.277344 48.671875 152.15625 48.519531 152.0625 48.429688 Z M 152.0625 48.429688 " fill-opacity="1" fill-rule="nonzero"/><path fill="#ffffff" d="M 148.335938 35.921875 C 148.214844 35.648438 148.183594 35.769531 148.183594 35.980469 C 148.335938 36.253906 148.460938 36.464844 148.460938 36.464844 C 148.429688 36.285156 148.398438 36.101562 148.335938 35.921875 Z M 148.335938 35.921875 " fill-opacity="1" fill-rule="nonzero"/><path fill="#ffffff" d="M 147.421875 37.859375 L 147.269531 37.828125 C 147.390625 37.980469 147.421875 37.949219 147.421875 37.859375 Z M 147.421875 37.859375 " fill-opacity="1" fill-rule="nonzero"/><path fill="#ffffff" d="M 151.636719 69.085938 C 151.605469 69.085938 151.636719 69.113281 151.636719 69.085938 Z M 151.636719 69.085938 " fill-opacity="1" fill-rule="nonzero"/><path fill="#ffffff" d="M 158.660156 61.996094 C 158.660156 61.996094 158.660156 61.96875 158.660156 61.996094 C 158.628906 61.9375 158.597656 61.90625 158.597656 61.847656 Z M 158.660156 61.996094 " fill-opacity="1" fill-rule="nonzero"/><path fill="#ffffff" d="M 160.15625 61.269531 C 160.15625 61.242188 160.125 61.210938 160.15625 61.269531 Z M 160.15625 61.269531 " fill-opacity="1" fill-rule="nonzero"/><path fill="#ffffff" d="M 149.863281 71.476562 C 149.863281 71.476562 149.863281 71.445312 149.863281 71.476562 C 149.863281 71.476562 149.835938 71.476562 149.835938 71.445312 Z M 149.863281 71.476562 " fill-opacity="1" fill-rule="nonzero"/><path fill="#ffffff" d="M 149.804688 71.386719 C 149.863281 71.386719 149.863281 71.445312 149.863281 71.476562 C 149.957031 71.507812 149.988281 71.476562 149.988281 71.417969 C 149.925781 71.355469 149.863281 71.417969 149.804688 71.386719 Z M 149.804688 71.386719 " fill-opacity="1" fill-rule="nonzero"/><path fill="#ffffff" d="M 146.65625 75.6875 L 146.628906 75.65625 C 146.65625 75.65625 146.65625 75.6875 146.65625 75.6875 Z M 146.65625 75.6875 " fill-opacity="1" fill-rule="nonzero"/><path fill="#ffffff" d="M 147.269531 75.082031 L 147.148438 74.992188 C 147.175781 75.050781 147.238281 75.082031 147.269531 75.082031 Z M 147.269531 75.082031 " fill-opacity="1" fill-rule="nonzero"/><path fill="#ffffff" d="M 158.597656 61.847656 L 158.566406 61.785156 C 158.566406 61.816406 158.566406 61.816406 158.597656 61.847656 Z M 158.597656 61.847656 " fill-opacity="1" fill-rule="nonzero"/><path fill="#ffffff" d="M 161.378906 60.421875 C 161.410156 60.453125 161.4375 60.484375 161.4375 60.511719 Z M 161.378906 60.421875 " fill-opacity="1" fill-rule="nonzero"/><path fill="#ffffff" d="M 168.800781 58.152344 C 168.800781 58.152344 168.769531 58.121094 168.769531 58.089844 L 168.800781 58.179688 C 168.800781 58.179688 168.800781 58.179688 168.800781 58.152344 Z M 168.800781 58.152344 " fill-opacity="1" fill-rule="nonzero"/><path fill="#ffffff" d="M 163.394531 59.726562 C 163.394531 59.726562 163.394531 59.695312 163.363281 59.664062 C 163.300781 59.636719 163.210938 59.695312 163.148438 59.757812 L 163.242188 59.90625 Z M 163.394531 59.726562 " fill-opacity="1" fill-rule="nonzero"/><g clip-path="url(#bd7ee3fc95)"><path fill="#ffffff" d="M 167.636719 61.9375 L 167.273438 61.753906 C 167.730469 61.242188 168.1875 61.363281 168.492188 60.816406 L 168.523438 60.90625 C 168.644531 60.9375 168.21875 60.210938 169.53125 60.574219 L 169.5625 60.605469 C 169.59375 60.574219 169.53125 60.511719 169.652344 60.574219 L 169.410156 60.484375 C 169.441406 60.363281 169.410156 60.179688 169.5 60.089844 C 169.53125 60.121094 169.59375 60.179688 169.625 60.210938 L 169.835938 60 L 170.050781 60.148438 C 170.050781 60 169.746094 59.605469 170.113281 59.695312 C 169.835938 59.453125 170.113281 59.453125 169.988281 59.332031 C 170.019531 59.363281 170.082031 59.394531 170.144531 59.421875 C 170.234375 59.300781 170.449219 59.089844 170.386719 58.878906 C 170.386719 58.878906 169.5 58.574219 169.164062 58.363281 C 169.410156 58.332031 169.195312 58.300781 169.105469 58.210938 L 169.136719 58.300781 C 168.980469 58.300781 168.859375 58.121094 168.769531 58.089844 C 168.769531 58.089844 168.800781 58.121094 168.800781 58.152344 L 168.800781 58.121094 C 168.828125 58.152344 168.828125 58.179688 168.828125 58.179688 C 168.859375 58.210938 168.859375 58.242188 168.828125 58.273438 L 168.828125 58.242188 C 168.800781 58.300781 168.707031 58.332031 168.644531 58.332031 L 168.554688 58.179688 C 168.675781 58.515625 167.730469 58.089844 167.609375 58.152344 C 167.363281 58.03125 167.394531 58.363281 167.210938 58.363281 C 166.964844 58.453125 166.964844 58.210938 166.753906 58.152344 C 166.539062 58.152344 166.90625 58.300781 166.84375 58.363281 L 166.539062 58.273438 C 166.628906 58.179688 166.507812 58.121094 166.449219 58.089844 C 166.292969 58.152344 165.867188 58.03125 166.050781 58.363281 C 165.777344 58.332031 165.683594 58.210938 165.59375 58.273438 C 165.652344 58.300781 165.746094 58.332031 165.777344 58.394531 C 165.621094 58.300781 165.777344 58.453125 165.804688 58.453125 C 165.777344 58.664062 164.828125 58.332031 165.042969 58.664062 L 165.011719 58.605469 C 165.164062 58.878906 165.378906 59.058594 165.378906 59.273438 L 165.257812 59.210938 L 165.257812 59.363281 C 165.132812 59.332031 165.132812 59.242188 165.105469 59.210938 C 165.042969 59.421875 164.769531 59.421875 164.585938 59.484375 L 165.226562 60.027344 C 164.980469 59.96875 164.523438 59.816406 164.644531 60.058594 L 164.402344 59.90625 C 163.820312 59.664062 164.339844 60.210938 164.15625 60.179688 L 163.851562 60.027344 L 163.972656 59.9375 C 163.761719 59.90625 163.636719 59.878906 163.425781 59.785156 C 163.425781 59.785156 163.453125 59.785156 163.453125 59.816406 L 163.453125 59.847656 C 163.515625 59.96875 163.515625 60.121094 163.425781 60.179688 C 163.269531 60.242188 163.300781 60.484375 162.90625 60.390625 L 163.027344 60.664062 L 162.753906 60.632812 L 162.597656 60.453125 C 162.753906 60.363281 162.996094 60.058594 163.210938 59.90625 L 163.148438 59.816406 C 163.027344 59.90625 162.964844 60.089844 162.875 60.121094 C 162.8125 60.121094 162.570312 59.96875 162.539062 59.785156 L 162.597656 60.027344 C 162.203125 60.332031 162.234375 60.363281 161.652344 60.453125 L 161.773438 60.511719 C 161.746094 60.632812 161.683594 60.753906 161.5625 60.605469 C 161.285156 60.753906 160.949219 60.847656 160.582031 60.726562 L 160.738281 60.96875 C 160.675781 60.996094 160.339844 60.726562 160.554688 61.058594 L 160.523438 61.242188 C 160.429688 61.269531 160.492188 61.453125 160.308594 61.390625 C 160.308594 61.390625 160.277344 61.390625 160.277344 61.390625 C 160.277344 61.390625 160.277344 61.390625 160.308594 61.421875 C 160.066406 61.453125 160.460938 61.632812 160.1875 61.632812 C 160.003906 61.511719 160.339844 61.96875 160.21875 61.996094 L 159.882812 61.753906 C 159.574219 61.695312 159.789062 62.027344 159.574219 62.238281 C 159.363281 62.210938 159.085938 61.996094 158.964844 61.695312 C 159.085938 62.058594 159.085938 61.90625 159.058594 62.179688 C 158.933594 62.089844 158.933594 62.027344 158.875 61.90625 C 158.628906 61.875 158.875 62.089844 158.78125 62.148438 C 158.933594 62.390625 159.210938 62.785156 159.179688 62.816406 L 159.269531 62.84375 C 159.269531 63.058594 159.210938 63.179688 159.027344 63.148438 L 158.933594 63.027344 L 158.875 63.179688 L 158.75 63.058594 L 158.628906 63.238281 L 158.691406 63.269531 C 158.660156 63.328125 158.566406 63.480469 158.445312 63.453125 L 158.386719 63.359375 C 157.957031 63.300781 158.078125 63.753906 157.867188 63.964844 L 157.742188 63.785156 C 157.53125 63.695312 157.925781 64.058594 157.773438 64.058594 L 157.589844 63.875 C 157.742188 64.207031 157.4375 63.90625 157.285156 63.875 L 157.53125 64.117188 L 157.378906 64.148438 C 157.195312 64.179688 157.011719 63.90625 156.917969 63.753906 L 157.011719 64.027344 L 156.796875 63.816406 C 156.980469 64.117188 156.707031 63.816406 156.707031 64.058594 C 156.613281 63.964844 156.613281 63.90625 156.523438 63.90625 L 156.644531 64.359375 L 156.613281 64.117188 L 156.886719 64.449219 C 157.011719 64.785156 156.707031 64.542969 156.707031 64.691406 L 156.675781 64.542969 C 156.613281 64.722656 156.492188 64.601562 156.339844 64.601562 C 156.429688 64.632812 156.523438 64.691406 156.523438 64.785156 C 156.492188 64.84375 156.398438 64.691406 156.339844 64.691406 C 156.523438 64.90625 156.550781 65.117188 156.371094 65.085938 C 156.339844 65.054688 156.308594 65.027344 156.308594 64.996094 C 156.308594 65.054688 156.371094 65.117188 156.277344 65.085938 L 156.09375 64.8125 L 156.246094 65.117188 C 156.15625 65.085938 156.246094 65.328125 156.09375 65.148438 L 156.0625 65.085938 L 155.667969 65.359375 L 155.484375 65.175781 C 155.699219 65.480469 155.207031 65.269531 155.515625 65.570312 C 155.269531 65.449219 155.363281 65.933594 155.054688 65.539062 C 154.8125 65.722656 154.996094 66.175781 154.566406 66.269531 C 154.171875 66.054688 153.988281 66.417969 153.804688 66.539062 C 153.589844 66.996094 153.46875 67.328125 153.222656 67.78125 C 152.582031 67.570312 152.855469 68.449219 152.398438 68.417969 L 152.519531 68.628906 C 152.09375 68.507812 152.214844 69.054688 151.757812 69.023438 C 151.789062 69.144531 151.789062 69.207031 151.789062 69.207031 C 151.820312 69.207031 151.847656 69.207031 151.972656 69.328125 C 151.847656 69.328125 151.820312 69.539062 151.605469 69.328125 L 151.605469 69.296875 C 151.390625 69.085938 151.542969 69.570312 151.269531 69.476562 L 151.542969 69.660156 L 151.390625 69.75 L 151.359375 69.691406 C 151.421875 70.660156 150.445312 70.203125 150.503906 71.144531 C 150.292969 70.839844 150.566406 71.355469 150.261719 71.113281 C 149.804688 70.902344 150.140625 71.417969 150.140625 71.597656 C 150.140625 71.597656 150.171875 71.628906 150.199219 71.660156 L 150.015625 71.808594 C 149.742188 71.386719 150.199219 72.203125 149.988281 71.839844 C 149.316406 72.050781 149.070312 72.902344 148.492188 73.324219 L 148.613281 73.386719 C 148.492188 73.507812 148.460938 73.777344 148.214844 73.75 C 147.972656 73.71875 148.277344 74.171875 148.246094 74.234375 C 148.308594 74.476562 147.910156 74.324219 147.972656 74.292969 C 147.910156 74.445312 148.15625 74.839844 147.878906 74.898438 C 147.511719 74.6875 147.820312 75.625 147.453125 75.324219 L 147.484375 75.355469 C 147.054688 75.382812 147.328125 75.929688 146.902344 75.988281 C 146.902344 75.988281 146.871094 75.960938 146.871094 75.929688 L 147.605469 77.261719 L 148.949219 78.078125 L 150.261719 78.441406 C 150.261719 78.441406 150.414062 78.140625 150.566406 77.808594 C 150.71875 77.503906 150.902344 77.171875 150.902344 77.171875 L 151.972656 76.625 C 151.972656 76.625 152.0625 76.503906 152.214844 76.292969 C 152.367188 76.082031 152.582031 75.839844 152.765625 75.566406 C 152.980469 75.292969 153.164062 75.050781 153.316406 74.839844 C 153.46875 74.65625 153.589844 74.503906 153.589844 74.503906 L 153.46875 74.140625 C 154.292969 74.171875 154.199219 73.171875 154.933594 73.082031 L 154.71875 72.871094 C 154.8125 72.75 154.933594 72.871094 155.027344 72.871094 C 156.003906 71.75 156.796875 70.386719 158.050781 69.75 C 158.261719 69.8125 158.476562 69.449219 158.691406 69.539062 C 158.75 68.992188 159.085938 68.660156 159.453125 68.386719 L 159.453125 68.417969 L 159.574219 68.238281 C 159.605469 68.238281 159.636719 68.265625 159.636719 68.296875 C 159.636719 67.933594 160.09375 67.902344 160.371094 67.8125 L 160.371094 67.84375 C 161.652344 66.8125 162.476562 65.390625 164.035156 64.722656 C 164.492188 64.691406 164.796875 64.390625 165.074219 64.085938 C 165.378906 63.785156 165.683594 63.480469 166.171875 63.390625 C 166.265625 63.328125 167.578125 62.148438 167.636719 61.9375 Z M 167.636719 61.9375 " fill-opacity="1" fill-rule="nonzero"/></g><path fill="#ffffff" d="M 169.5625 60.179688 C 169.625 60.269531 169.625 60.242188 169.5625 60.179688 Z M 169.5625 60.179688 " fill-opacity="1" fill-rule="nonzero"/><path fill="#ffffff" d="M 164.523438 59.394531 L 164.402344 59.273438 Z M 164.523438 59.394531 " fill-opacity="1" fill-rule="nonzero"/><path fill="#ffffff" d="M 166.476562 57.9375 C 166.355469 57.96875 166.386719 58 166.417969 58.03125 C 166.449219 58 166.476562 57.96875 166.476562 57.9375 Z M 166.476562 57.9375 " fill-opacity="1" fill-rule="nonzero"/><g clip-path="url(#b6a7b9312b)"><path fill="#ffffff" d="M 170.171875 59.515625 C 170.234375 59.484375 170.171875 59.453125 170.082031 59.394531 C 170.050781 59.421875 170.019531 59.453125 170.019531 59.453125 C 170.050781 59.453125 170.144531 59.484375 170.171875 59.515625 Z M 170.171875 59.515625 " fill-opacity="1" fill-rule="nonzero"/></g><path fill="#ffffff" d="M 169.042969 58.179688 L 169.011719 58.089844 C 169.011719 58.121094 169.011719 58.152344 169.042969 58.179688 Z M 169.042969 58.179688 " fill-opacity="1" fill-rule="nonzero"/></svg>