<svg xmlns="http://www.w3.org/2000/svg" xmlns:xlink="http://www.w3.org/1999/xlink" width="250" zoomAndPan="magnify" viewBox="0 0 187.5 374.999989" height="500" preserveAspectRatio="xMidYMid meet" version="1.0"><defs><clipPath id="b67f4f8335"><path d="M 112.5 118 L 187 118 L 187 258 L 112.5 258 Z M 112.5 118 " clip-rule="nonzero"/></clipPath></defs><g clip-path="url(#b67f4f8335)"><path fill="#ffffff" d="M 114.320312 256.535156 C 115.222656 257.4375 116.40625 257.890625 117.59375 257.890625 C 118.777344 257.890625 119.960938 257.4375 120.867188 256.535156 L 185.679688 191.617188 C 187.488281 189.804688 187.488281 186.871094 185.679688 185.058594 L 120.867188 120.140625 C 119.058594 118.332031 116.128906 118.332031 114.320312 120.140625 C 112.511719 121.953125 112.511719 124.886719 114.320312 126.699219 L 175.859375 188.339844 L 114.320312 249.976562 C 112.511719 251.789062 112.511719 254.722656 114.320312 256.535156 Z M 114.320312 256.535156 " fill-opacity="1" fill-rule="nonzero"/></g></svg>