<?xml version="1.0" encoding="UTF-8"?><svg id="Layer_1" xmlns="http://www.w3.org/2000/svg" xmlns:xlink="http://www.w3.org/1999/xlink" viewBox="0 0 390.84 108.48"><defs><style>.cls-1{fill:url(#linear-gradient);}.cls-2{font-family:Chaloops-Medium, Chaloops;font-size:65px;}.cls-2,.cls-3{fill:#231f20;}.cls-4{fill:none;stroke:#231f20;stroke-miterlimit:10;stroke-width:4px;}</style><linearGradient id="linear-gradient" x1="195.42" y1="108.48" x2="195.42" y2="0" gradientUnits="userSpaceOnUse"><stop offset=".4" stop-color="#a1509f"/><stop offset=".43" stop-color="#8e689e"/><stop offset=".47" stop-color="#7a829d"/><stop offset=".52" stop-color="#6a989c"/><stop offset=".57" stop-color="#5da99b"/><stop offset=".64" stop-color="#54b59b"/><stop offset=".74" stop-color="#4fbc9b"/><stop offset="1" stop-color="#4ebe9b"/></linearGradient></defs><rect class="cls-1" width="390.84" height="108.48"/><rect class="cls-4" x="13.29" y="13.27" width="364.25" height="81.94"/><text class="cls-2" transform="translate(22.3 76.22)"><tspan x="0" y="0">Click</tspan></text><g><path class="cls-3" d="M200.76,35.2c-.93,0-2.8,.26-5.27,.78l.8,19.57c.4,.07,.8,.07,1.2,.07,2.94,.07,5.47-.72,7.54-1.95,2.33-1.43,6-6.5,6-11.64s-4.47-6.83-10.27-6.83Z"/><path class="cls-3" d="M266.59,51.19c-3,0-4.74,3.06-5.07,5.27v1.04c.07,.58,.13,1.5,.33,2.6,.67,3.58,3.94,7.28,7.47,7.28,3.8-.26,5.54-3.45,5.54-6.05,0-.84-.07-1.69-.2-2.73,0-3.25-4.34-7.41-8.07-7.41Z"/><path class="cls-3" d="M170.8,13.27V95.21h206.74V13.27H170.8Zm44.9,39.87c-4.07,5.98-9.67,9.3-19.14,9.3,.53,6.96,1.13,13.78,1.6,20.48-2.67,.65-4.87,.98-6.67,.98-1.07,0-2-.13-2.73-.39,.13-2.01,.13-3.45,.13-5.39,0-2.41,.07-2.6-1.2-40.37-.47,.06-3.8,.98-4.2,1.04l-1.53-7.67c4.34-.78,15.01-3.06,20.14-3.06,11.07,0,17.74,4.49,17.74,12.87-.07,3.77-1.53,8.32-4.13,12.22Zm26.41,3.97c0-1.75,.07-3.38,.07-5.14,0-1.49-.87-3.12-1.87-3.12-2.13,0-4.67,1.82-8.74,7.09-.07,1.75-.2,4.03-.2,6.57,0,4.81-.27,7.08,.6,14.04-3.2-.13-6.34-.26-9.47-.33l.27-2.86v-1.89c0-5.72,.47-8.32,.47-15.86,0-5.14-.13-9.88-.47-14.04,2.33-.91,7.87-1.62,8.81-1.95-.2,2.34,0,4.62-.2,7.15,3.13-3.12,6.4-5.72,9.27-5.72,2.53,0,4.4,.91,6.07,2.6l.6,.85c1.4,1.95,2.4,4.49,2.4,6.83,0,.91,0,3.32,.07,5.14,0,.07-5.07,.65-7.67,.65Zm37.35,12.87c-2.73,3.51-6.34,5.4-10.74,5.4-9.14,0-15.61-8.52-15.61-17.23,0-7.35,5.87-14.11,14.21-14.11,7.54,0,14.81,6.37,15.28,15.02-.13,3.9-.67,7.74-3.14,10.92Zm46.09,7.74c-.07-2.27-.07-6.57-.07-9.95,0-11.7-1.27-17.1-3.94-17.1-6.94,0-6.2,15.41-6.2,17.88,0,2.6,.07,5.2,.2,7.41l-9.14-.46,.53-4.16c.13-.84,.2-1.82,.27-2.73,.27-4.55,.47-7.34,.47-11.25,0-2.86-.87-6.44-3.4-6.44s-6.27,2.93-8.14,6.05v4.42c0,3.05-.13,3.12-.07,8.06,0,2.21,.13,4.94,.13,4.94-3,0-5.94-.07-8.87-.13,0-.06,.07-2.99,.27-6.3,.2-3.19,.73-6.18,.73-7.93,0-2.67-.27-6.18-.73-9.23-.4-2.6-1.13-4.23-1.6-4.94,.33-.2,5.67-2.8,7.94-3.45,0,0,1.53,3.12,1.8,6.24,2-2.47,5.4-5.98,9.4-5.98,4.6,0,7.87,3.06,9.07,5.92,2.27-3.97,6.4-5.59,9.61-5.59,2.87,.13,5.2,1.37,7.14,3.71,2.27,3.19,2.4,8.19,2.4,13.26v1.88c0,5.92,.67,10.01,.73,15.34l-8.54,.52Zm39.82-7.74c-2.73,3.51-6.34,5.4-10.74,5.4-9.14,0-15.61-8.52-15.61-17.23,0-7.35,5.87-14.11,14.21-14.11,7.54,0,14.81,6.37,15.28,15.02-.13,3.9-.67,7.74-3.14,10.92Z"/><path class="cls-3" d="M352.5,51.19c-3,0-4.74,3.06-5.07,5.27v1.04c.07,.58,.13,1.5,.33,2.6,.67,3.58,3.94,7.28,7.47,7.28,3.8-.26,5.54-3.45,5.54-6.05,0-.84-.07-1.69-.2-2.73,0-3.25-4.34-7.41-8.07-7.41Z"/></g></svg>